<?xml version="1.0" encoding="UTF-8"?>
<svg xmlns="http://www.w3.org/2000/svg" viewBox="0 0 1188 244" role="img" aria-label="OPEN-VIBECODING">
  <rect width="1188" height="244" fill="#0d1117"/>
  <defs><pattern id="dots" width="24" height="24" patternUnits="userSpaceOnUse"><circle cx="1" cy="1" r="1" fill="#1f2937"/></pattern></defs>
  <rect width="1188" height="244" fill="url(#dots)" opacity="0.5"/>
  <g transform="translate(10 10)" fill="none" stroke="#374151" stroke-width="1">
    <rect x="72" y="60" width="12" height="12"/>
    <rect x="84" y="60" width="12" height="12"/>
    <rect x="96" y="60" width="12" height="12"/>
    <rect x="60" y="72" width="12" height="12"/>
    <rect x="108" y="72" width="12" height="12"/>
    <rect x="60" y="84" width="12" height="12"/>
    <rect x="108" y="84" width="12" height="12"/>
    <rect x="60" y="96" width="12" height="12"/>
    <rect x="108" y="96" width="12" height="12"/>
    <rect x="60" y="108" width="12" height="12"/>
    <rect x="108" y="108" width="12" height="12"/>
    <rect x="60" y="120" width="12" height="12"/>
    <rect x="108" y="120" width="12" height="12"/>
    <rect x="72" y="132" width="12" height="12"/>
    <rect x="84" y="132" width="12" height="12"/>
    <rect x="96" y="132" width="12" height="12"/>
    <rect x="132" y="60" width="12" height="12"/>
    <rect x="144" y="60" width="12" height="12"/>
    <rect x="156" y="60" width="12" height="12"/>
    <rect x="168" y="60" width="12" height="12"/>
    <rect x="132" y="72" width="12" height="12"/>
    <rect x="180" y="72" width="12" height="12"/>
    <rect x="132" y="84" width="12" height="12"/>
    <rect x="180" y="84" width="12" height="12"/>
    <rect x="132" y="96" width="12" height="12"/>
    <rect x="144" y="96" width="12" height="12"/>
    <rect x="156" y="96" width="12" height="12"/>
    <rect x="168" y="96" width="12" height="12"/>
    <rect x="132" y="108" width="12" height="12"/>
    <rect x="132" y="120" width="12" height="12"/>
    <rect x="132" y="132" width="12" height="12"/>
    <rect x="204" y="60" width="12" height="12"/>
    <rect x="216" y="60" width="12" height="12"/>
    <rect x="228" y="60" width="12" height="12"/>
    <rect x="240" y="60" width="12" height="12"/>
    <rect x="252" y="60" width="12" height="12"/>
    <rect x="204" y="72" width="12" height="12"/>
    <rect x="204" y="84" width="12" height="12"/>
    <rect x="204" y="96" width="12" height="12"/>
    <rect x="216" y="96" width="12" height="12"/>
    <rect x="228" y="96" width="12" height="12"/>
    <rect x="240" y="96" width="12" height="12"/>
    <rect x="204" y="108" width="12" height="12"/>
    <rect x="204" y="120" width="12" height="12"/>
    <rect x="204" y="132" width="12" height="12"/>
    <rect x="216" y="132" width="12" height="12"/>
    <rect x="228" y="132" width="12" height="12"/>
    <rect x="240" y="132" width="12" height="12"/>
    <rect x="252" y="132" width="12" height="12"/>
    <rect x="276" y="60" width="12" height="12"/>
    <rect x="324" y="60" width="12" height="12"/>
    <rect x="276" y="72" width="12" height="12"/>
    <rect x="288" y="72" width="12" height="12"/>
    <rect x="324" y="72" width="12" height="12"/>
    <rect x="276" y="84" width="12" height="12"/>
    <rect x="288" y="84" width="12" height="12"/>
    <rect x="324" y="84" width="12" height="12"/>
    <rect x="276" y="96" width="12" height="12"/>
    <rect x="300" y="96" width="12" height="12"/>
    <rect x="324" y="96" width="12" height="12"/>
    <rect x="276" y="108" width="12" height="12"/>
    <rect x="312" y="108" width="12" height="12"/>
    <rect x="324" y="108" width="12" height="12"/>
    <rect x="276" y="120" width="12" height="12"/>
    <rect x="312" y="120" width="12" height="12"/>
    <rect x="324" y="120" width="12" height="12"/>
    <rect x="276" y="132" width="12" height="12"/>
    <rect x="324" y="132" width="12" height="12"/>
    <rect x="348" y="96" width="12" height="12"/>
    <rect x="360" y="96" width="12" height="12"/>
    <rect x="372" y="96" width="12" height="12"/>
    <rect x="384" y="96" width="12" height="12"/>
    <rect x="396" y="96" width="12" height="12"/>
    <rect x="420" y="60" width="12" height="12"/>
    <rect x="468" y="60" width="12" height="12"/>
    <rect x="420" y="72" width="12" height="12"/>
    <rect x="468" y="72" width="12" height="12"/>
    <rect x="420" y="84" width="12" height="12"/>
    <rect x="468" y="84" width="12" height="12"/>
    <rect x="420" y="96" width="12" height="12"/>
    <rect x="468" y="96" width="12" height="12"/>
    <rect x="420" y="108" width="12" height="12"/>
    <rect x="468" y="108" width="12" height="12"/>
    <rect x="432" y="120" width="12" height="12"/>
    <rect x="456" y="120" width="12" height="12"/>
    <rect x="444" y="132" width="12" height="12"/>
    <rect x="492" y="60" width="12" height="12"/>
    <rect x="504" y="60" width="12" height="12"/>
    <rect x="516" y="60" width="12" height="12"/>
    <rect x="528" y="60" width="12" height="12"/>
    <rect x="540" y="60" width="12" height="12"/>
    <rect x="516" y="72" width="12" height="12"/>
    <rect x="516" y="84" width="12" height="12"/>
    <rect x="516" y="96" width="12" height="12"/>
    <rect x="516" y="108" width="12" height="12"/>
    <rect x="516" y="120" width="12" height="12"/>
    <rect x="492" y="132" width="12" height="12"/>
    <rect x="504" y="132" width="12" height="12"/>
    <rect x="516" y="132" width="12" height="12"/>
    <rect x="528" y="132" width="12" height="12"/>
    <rect x="540" y="132" width="12" height="12"/>
    <rect x="564" y="60" width="12" height="12"/>
    <rect x="576" y="60" width="12" height="12"/>
    <rect x="588" y="60" width="12" height="12"/>
    <rect x="600" y="60" width="12" height="12"/>
    <rect x="564" y="72" width="12" height="12"/>
    <rect x="612" y="72" width="12" height="12"/>
    <rect x="564" y="84" width="12" height="12"/>
    <rect x="612" y="84" width="12" height="12"/>
    <rect x="564" y="96" width="12" height="12"/>
    <rect x="576" y="96" width="12" height="12"/>
    <rect x="588" y="96" width="12" height="12"/>
    <rect x="600" y="96" width="12" height="12"/>
    <rect x="564" y="108" width="12" height="12"/>
    <rect x="612" y="108" width="12" height="12"/>
    <rect x="564" y="120" width="12" height="12"/>
    <rect x="612" y="120" width="12" height="12"/>
    <rect x="564" y="132" width="12" height="12"/>
    <rect x="576" y="132" width="12" height="12"/>
    <rect x="588" y="132" width="12" height="12"/>
    <rect x="600" y="132" width="12" height="12"/>
    <rect x="636" y="60" width="12" height="12"/>
    <rect x="648" y="60" width="12" height="12"/>
    <rect x="660" y="60" width="12" height="12"/>
    <rect x="672" y="60" width="12" height="12"/>
    <rect x="684" y="60" width="12" height="12"/>
    <rect x="636" y="72" width="12" height="12"/>
    <rect x="636" y="84" width="12" height="12"/>
    <rect x="636" y="96" width="12" height="12"/>
    <rect x="648" y="96" width="12" height="12"/>
    <rect x="660" y="96" width="12" height="12"/>
    <rect x="672" y="96" width="12" height="12"/>
    <rect x="636" y="108" width="12" height="12"/>
    <rect x="636" y="120" width="12" height="12"/>
    <rect x="636" y="132" width="12" height="12"/>
    <rect x="648" y="132" width="12" height="12"/>
    <rect x="660" y="132" width="12" height="12"/>
    <rect x="672" y="132" width="12" height="12"/>
    <rect x="684" y="132" width="12" height="12"/>
    <rect x="720" y="60" width="12" height="12"/>
    <rect x="732" y="60" width="12" height="12"/>
    <rect x="744" y="60" width="12" height="12"/>
    <rect x="708" y="72" width="12" height="12"/>
    <rect x="756" y="72" width="12" height="12"/>
    <rect x="708" y="84" width="12" height="12"/>
    <rect x="708" y="96" width="12" height="12"/>
    <rect x="708" y="108" width="12" height="12"/>
    <rect x="708" y="120" width="12" height="12"/>
    <rect x="756" y="120" width="12" height="12"/>
    <rect x="720" y="132" width="12" height="12"/>
    <rect x="732" y="132" width="12" height="12"/>
    <rect x="744" y="132" width="12" height="12"/>
    <rect x="792" y="60" width="12" height="12"/>
    <rect x="804" y="60" width="12" height="12"/>
    <rect x="816" y="60" width="12" height="12"/>
    <rect x="780" y="72" width="12" height="12"/>
    <rect x="828" y="72" width="12" height="12"/>
    <rect x="780" y="84" width="12" height="12"/>
    <rect x="828" y="84" width="12" height="12"/>
    <rect x="780" y="96" width="12" height="12"/>
    <rect x="828" y="96" width="12" height="12"/>
    <rect x="780" y="108" width="12" height="12"/>
    <rect x="828" y="108" width="12" height="12"/>
    <rect x="780" y="120" width="12" height="12"/>
    <rect x="828" y="120" width="12" height="12"/>
    <rect x="792" y="132" width="12" height="12"/>
    <rect x="804" y="132" width="12" height="12"/>
    <rect x="816" y="132" width="12" height="12"/>
    <rect x="852" y="60" width="12" height="12"/>
    <rect x="864" y="60" width="12" height="12"/>
    <rect x="876" y="60" width="12" height="12"/>
    <rect x="888" y="60" width="12" height="12"/>
    <rect x="852" y="72" width="12" height="12"/>
    <rect x="900" y="72" width="12" height="12"/>
    <rect x="852" y="84" width="12" height="12"/>
    <rect x="900" y="84" width="12" height="12"/>
    <rect x="852" y="96" width="12" height="12"/>
    <rect x="900" y="96" width="12" height="12"/>
    <rect x="852" y="108" width="12" height="12"/>
    <rect x="900" y="108" width="12" height="12"/>
    <rect x="852" y="120" width="12" height="12"/>
    <rect x="900" y="120" width="12" height="12"/>
    <rect x="852" y="132" width="12" height="12"/>
    <rect x="864" y="132" width="12" height="12"/>
    <rect x="876" y="132" width="12" height="12"/>
    <rect x="888" y="132" width="12" height="12"/>
    <rect x="924" y="60" width="12" height="12"/>
    <rect x="936" y="60" width="12" height="12"/>
    <rect x="948" y="60" width="12" height="12"/>
    <rect x="960" y="60" width="12" height="12"/>
    <rect x="972" y="60" width="12" height="12"/>
    <rect x="948" y="72" width="12" height="12"/>
    <rect x="948" y="84" width="12" height="12"/>
    <rect x="948" y="96" width="12" height="12"/>
    <rect x="948" y="108" width="12" height="12"/>
    <rect x="948" y="120" width="12" height="12"/>
    <rect x="924" y="132" width="12" height="12"/>
    <rect x="936" y="132" width="12" height="12"/>
    <rect x="948" y="132" width="12" height="12"/>
    <rect x="960" y="132" width="12" height="12"/>
    <rect x="972" y="132" width="12" height="12"/>
    <rect x="996" y="60" width="12" height="12"/>
    <rect x="1044" y="60" width="12" height="12"/>
    <rect x="996" y="72" width="12" height="12"/>
    <rect x="1008" y="72" width="12" height="12"/>
    <rect x="1044" y="72" width="12" height="12"/>
    <rect x="996" y="84" width="12" height="12"/>
    <rect x="1008" y="84" width="12" height="12"/>
    <rect x="1044" y="84" width="12" height="12"/>
    <rect x="996" y="96" width="12" height="12"/>
    <rect x="1020" y="96" width="12" height="12"/>
    <rect x="1044" y="96" width="12" height="12"/>
    <rect x="996" y="108" width="12" height="12"/>
    <rect x="1032" y="108" width="12" height="12"/>
    <rect x="1044" y="108" width="12" height="12"/>
    <rect x="996" y="120" width="12" height="12"/>
    <rect x="1032" y="120" width="12" height="12"/>
    <rect x="1044" y="120" width="12" height="12"/>
    <rect x="996" y="132" width="12" height="12"/>
    <rect x="1044" y="132" width="12" height="12"/>
    <rect x="1080" y="60" width="12" height="12"/>
    <rect x="1092" y="60" width="12" height="12"/>
    <rect x="1104" y="60" width="12" height="12"/>
    <rect x="1068" y="72" width="12" height="12"/>
    <rect x="1116" y="72" width="12" height="12"/>
    <rect x="1068" y="84" width="12" height="12"/>
    <rect x="1068" y="96" width="12" height="12"/>
    <rect x="1092" y="96" width="12" height="12"/>
    <rect x="1104" y="96" width="12" height="12"/>
    <rect x="1116" y="96" width="12" height="12"/>
    <rect x="1068" y="108" width="12" height="12"/>
    <rect x="1116" y="108" width="12" height="12"/>
    <rect x="1068" y="120" width="12" height="12"/>
    <rect x="1116" y="120" width="12" height="12"/>
    <rect x="1080" y="132" width="12" height="12"/>
    <rect x="1092" y="132" width="12" height="12"/>
    <rect x="1104" y="132" width="12" height="12"/>
  </g>
  <g transform="translate(6 6)" fill="none" stroke="#374151" stroke-width="1">
    <rect x="72" y="60" width="12" height="12"/>
    <rect x="84" y="60" width="12" height="12"/>
    <rect x="96" y="60" width="12" height="12"/>
    <rect x="60" y="72" width="12" height="12"/>
    <rect x="108" y="72" width="12" height="12"/>
    <rect x="60" y="84" width="12" height="12"/>
    <rect x="108" y="84" width="12" height="12"/>
    <rect x="60" y="96" width="12" height="12"/>
    <rect x="108" y="96" width="12" height="12"/>
    <rect x="60" y="108" width="12" height="12"/>
    <rect x="108" y="108" width="12" height="12"/>
    <rect x="60" y="120" width="12" height="12"/>
    <rect x="108" y="120" width="12" height="12"/>
    <rect x="72" y="132" width="12" height="12"/>
    <rect x="84" y="132" width="12" height="12"/>
    <rect x="96" y="132" width="12" height="12"/>
    <rect x="132" y="60" width="12" height="12"/>
    <rect x="144" y="60" width="12" height="12"/>
    <rect x="156" y="60" width="12" height="12"/>
    <rect x="168" y="60" width="12" height="12"/>
    <rect x="132" y="72" width="12" height="12"/>
    <rect x="180" y="72" width="12" height="12"/>
    <rect x="132" y="84" width="12" height="12"/>
    <rect x="180" y="84" width="12" height="12"/>
    <rect x="132" y="96" width="12" height="12"/>
    <rect x="144" y="96" width="12" height="12"/>
    <rect x="156" y="96" width="12" height="12"/>
    <rect x="168" y="96" width="12" height="12"/>
    <rect x="132" y="108" width="12" height="12"/>
    <rect x="132" y="120" width="12" height="12"/>
    <rect x="132" y="132" width="12" height="12"/>
    <rect x="204" y="60" width="12" height="12"/>
    <rect x="216" y="60" width="12" height="12"/>
    <rect x="228" y="60" width="12" height="12"/>
    <rect x="240" y="60" width="12" height="12"/>
    <rect x="252" y="60" width="12" height="12"/>
    <rect x="204" y="72" width="12" height="12"/>
    <rect x="204" y="84" width="12" height="12"/>
    <rect x="204" y="96" width="12" height="12"/>
    <rect x="216" y="96" width="12" height="12"/>
    <rect x="228" y="96" width="12" height="12"/>
    <rect x="240" y="96" width="12" height="12"/>
    <rect x="204" y="108" width="12" height="12"/>
    <rect x="204" y="120" width="12" height="12"/>
    <rect x="204" y="132" width="12" height="12"/>
    <rect x="216" y="132" width="12" height="12"/>
    <rect x="228" y="132" width="12" height="12"/>
    <rect x="240" y="132" width="12" height="12"/>
    <rect x="252" y="132" width="12" height="12"/>
    <rect x="276" y="60" width="12" height="12"/>
    <rect x="324" y="60" width="12" height="12"/>
    <rect x="276" y="72" width="12" height="12"/>
    <rect x="288" y="72" width="12" height="12"/>
    <rect x="324" y="72" width="12" height="12"/>
    <rect x="276" y="84" width="12" height="12"/>
    <rect x="288" y="84" width="12" height="12"/>
    <rect x="324" y="84" width="12" height="12"/>
    <rect x="276" y="96" width="12" height="12"/>
    <rect x="300" y="96" width="12" height="12"/>
    <rect x="324" y="96" width="12" height="12"/>
    <rect x="276" y="108" width="12" height="12"/>
    <rect x="312" y="108" width="12" height="12"/>
    <rect x="324" y="108" width="12" height="12"/>
    <rect x="276" y="120" width="12" height="12"/>
    <rect x="312" y="120" width="12" height="12"/>
    <rect x="324" y="120" width="12" height="12"/>
    <rect x="276" y="132" width="12" height="12"/>
    <rect x="324" y="132" width="12" height="12"/>
    <rect x="348" y="96" width="12" height="12"/>
    <rect x="360" y="96" width="12" height="12"/>
    <rect x="372" y="96" width="12" height="12"/>
    <rect x="384" y="96" width="12" height="12"/>
    <rect x="396" y="96" width="12" height="12"/>
    <rect x="420" y="60" width="12" height="12"/>
    <rect x="468" y="60" width="12" height="12"/>
    <rect x="420" y="72" width="12" height="12"/>
    <rect x="468" y="72" width="12" height="12"/>
    <rect x="420" y="84" width="12" height="12"/>
    <rect x="468" y="84" width="12" height="12"/>
    <rect x="420" y="96" width="12" height="12"/>
    <rect x="468" y="96" width="12" height="12"/>
    <rect x="420" y="108" width="12" height="12"/>
    <rect x="468" y="108" width="12" height="12"/>
    <rect x="432" y="120" width="12" height="12"/>
    <rect x="456" y="120" width="12" height="12"/>
    <rect x="444" y="132" width="12" height="12"/>
    <rect x="492" y="60" width="12" height="12"/>
    <rect x="504" y="60" width="12" height="12"/>
    <rect x="516" y="60" width="12" height="12"/>
    <rect x="528" y="60" width="12" height="12"/>
    <rect x="540" y="60" width="12" height="12"/>
    <rect x="516" y="72" width="12" height="12"/>
    <rect x="516" y="84" width="12" height="12"/>
    <rect x="516" y="96" width="12" height="12"/>
    <rect x="516" y="108" width="12" height="12"/>
    <rect x="516" y="120" width="12" height="12"/>
    <rect x="492" y="132" width="12" height="12"/>
    <rect x="504" y="132" width="12" height="12"/>
    <rect x="516" y="132" width="12" height="12"/>
    <rect x="528" y="132" width="12" height="12"/>
    <rect x="540" y="132" width="12" height="12"/>
    <rect x="564" y="60" width="12" height="12"/>
    <rect x="576" y="60" width="12" height="12"/>
    <rect x="588" y="60" width="12" height="12"/>
    <rect x="600" y="60" width="12" height="12"/>
    <rect x="564" y="72" width="12" height="12"/>
    <rect x="612" y="72" width="12" height="12"/>
    <rect x="564" y="84" width="12" height="12"/>
    <rect x="612" y="84" width="12" height="12"/>
    <rect x="564" y="96" width="12" height="12"/>
    <rect x="576" y="96" width="12" height="12"/>
    <rect x="588" y="96" width="12" height="12"/>
    <rect x="600" y="96" width="12" height="12"/>
    <rect x="564" y="108" width="12" height="12"/>
    <rect x="612" y="108" width="12" height="12"/>
    <rect x="564" y="120" width="12" height="12"/>
    <rect x="612" y="120" width="12" height="12"/>
    <rect x="564" y="132" width="12" height="12"/>
    <rect x="576" y="132" width="12" height="12"/>
    <rect x="588" y="132" width="12" height="12"/>
    <rect x="600" y="132" width="12" height="12"/>
    <rect x="636" y="60" width="12" height="12"/>
    <rect x="648" y="60" width="12" height="12"/>
    <rect x="660" y="60" width="12" height="12"/>
    <rect x="672" y="60" width="12" height="12"/>
    <rect x="684" y="60" width="12" height="12"/>
    <rect x="636" y="72" width="12" height="12"/>
    <rect x="636" y="84" width="12" height="12"/>
    <rect x="636" y="96" width="12" height="12"/>
    <rect x="648" y="96" width="12" height="12"/>
    <rect x="660" y="96" width="12" height="12"/>
    <rect x="672" y="96" width="12" height="12"/>
    <rect x="636" y="108" width="12" height="12"/>
    <rect x="636" y="120" width="12" height="12"/>
    <rect x="636" y="132" width="12" height="12"/>
    <rect x="648" y="132" width="12" height="12"/>
    <rect x="660" y="132" width="12" height="12"/>
    <rect x="672" y="132" width="12" height="12"/>
    <rect x="684" y="132" width="12" height="12"/>
    <rect x="720" y="60" width="12" height="12"/>
    <rect x="732" y="60" width="12" height="12"/>
    <rect x="744" y="60" width="12" height="12"/>
    <rect x="708" y="72" width="12" height="12"/>
    <rect x="756" y="72" width="12" height="12"/>
    <rect x="708" y="84" width="12" height="12"/>
    <rect x="708" y="96" width="12" height="12"/>
    <rect x="708" y="108" width="12" height="12"/>
    <rect x="708" y="120" width="12" height="12"/>
    <rect x="756" y="120" width="12" height="12"/>
    <rect x="720" y="132" width="12" height="12"/>
    <rect x="732" y="132" width="12" height="12"/>
    <rect x="744" y="132" width="12" height="12"/>
    <rect x="792" y="60" width="12" height="12"/>
    <rect x="804" y="60" width="12" height="12"/>
    <rect x="816" y="60" width="12" height="12"/>
    <rect x="780" y="72" width="12" height="12"/>
    <rect x="828" y="72" width="12" height="12"/>
    <rect x="780" y="84" width="12" height="12"/>
    <rect x="828" y="84" width="12" height="12"/>
    <rect x="780" y="96" width="12" height="12"/>
    <rect x="828" y="96" width="12" height="12"/>
    <rect x="780" y="108" width="12" height="12"/>
    <rect x="828" y="108" width="12" height="12"/>
    <rect x="780" y="120" width="12" height="12"/>
    <rect x="828" y="120" width="12" height="12"/>
    <rect x="792" y="132" width="12" height="12"/>
    <rect x="804" y="132" width="12" height="12"/>
    <rect x="816" y="132" width="12" height="12"/>
    <rect x="852" y="60" width="12" height="12"/>
    <rect x="864" y="60" width="12" height="12"/>
    <rect x="876" y="60" width="12" height="12"/>
    <rect x="888" y="60" width="12" height="12"/>
    <rect x="852" y="72" width="12" height="12"/>
    <rect x="900" y="72" width="12" height="12"/>
    <rect x="852" y="84" width="12" height="12"/>
    <rect x="900" y="84" width="12" height="12"/>
    <rect x="852" y="96" width="12" height="12"/>
    <rect x="900" y="96" width="12" height="12"/>
    <rect x="852" y="108" width="12" height="12"/>
    <rect x="900" y="108" width="12" height="12"/>
    <rect x="852" y="120" width="12" height="12"/>
    <rect x="900" y="120" width="12" height="12"/>
    <rect x="852" y="132" width="12" height="12"/>
    <rect x="864" y="132" width="12" height="12"/>
    <rect x="876" y="132" width="12" height="12"/>
    <rect x="888" y="132" width="12" height="12"/>
    <rect x="924" y="60" width="12" height="12"/>
    <rect x="936" y="60" width="12" height="12"/>
    <rect x="948" y="60" width="12" height="12"/>
    <rect x="960" y="60" width="12" height="12"/>
    <rect x="972" y="60" width="12" height="12"/>
    <rect x="948" y="72" width="12" height="12"/>
    <rect x="948" y="84" width="12" height="12"/>
    <rect x="948" y="96" width="12" height="12"/>
    <rect x="948" y="108" width="12" height="12"/>
    <rect x="948" y="120" width="12" height="12"/>
    <rect x="924" y="132" width="12" height="12"/>
    <rect x="936" y="132" width="12" height="12"/>
    <rect x="948" y="132" width="12" height="12"/>
    <rect x="960" y="132" width="12" height="12"/>
    <rect x="972" y="132" width="12" height="12"/>
    <rect x="996" y="60" width="12" height="12"/>
    <rect x="1044" y="60" width="12" height="12"/>
    <rect x="996" y="72" width="12" height="12"/>
    <rect x="1008" y="72" width="12" height="12"/>
    <rect x="1044" y="72" width="12" height="12"/>
    <rect x="996" y="84" width="12" height="12"/>
    <rect x="1008" y="84" width="12" height="12"/>
    <rect x="1044" y="84" width="12" height="12"/>
    <rect x="996" y="96" width="12" height="12"/>
    <rect x="1020" y="96" width="12" height="12"/>
    <rect x="1044" y="96" width="12" height="12"/>
    <rect x="996" y="108" width="12" height="12"/>
    <rect x="1032" y="108" width="12" height="12"/>
    <rect x="1044" y="108" width="12" height="12"/>
    <rect x="996" y="120" width="12" height="12"/>
    <rect x="1032" y="120" width="12" height="12"/>
    <rect x="1044" y="120" width="12" height="12"/>
    <rect x="996" y="132" width="12" height="12"/>
    <rect x="1044" y="132" width="12" height="12"/>
    <rect x="1080" y="60" width="12" height="12"/>
    <rect x="1092" y="60" width="12" height="12"/>
    <rect x="1104" y="60" width="12" height="12"/>
    <rect x="1068" y="72" width="12" height="12"/>
    <rect x="1116" y="72" width="12" height="12"/>
    <rect x="1068" y="84" width="12" height="12"/>
    <rect x="1068" y="96" width="12" height="12"/>
    <rect x="1092" y="96" width="12" height="12"/>
    <rect x="1104" y="96" width="12" height="12"/>
    <rect x="1116" y="96" width="12" height="12"/>
    <rect x="1068" y="108" width="12" height="12"/>
    <rect x="1116" y="108" width="12" height="12"/>
    <rect x="1068" y="120" width="12" height="12"/>
    <rect x="1116" y="120" width="12" height="12"/>
    <rect x="1080" y="132" width="12" height="12"/>
    <rect x="1092" y="132" width="12" height="12"/>
    <rect x="1104" y="132" width="12" height="12"/>
  </g>
  <g transform="translate(3 3)" fill="none" stroke="#374151" stroke-width="1">
    <rect x="72" y="60" width="12" height="12"/>
    <rect x="84" y="60" width="12" height="12"/>
    <rect x="96" y="60" width="12" height="12"/>
    <rect x="60" y="72" width="12" height="12"/>
    <rect x="108" y="72" width="12" height="12"/>
    <rect x="60" y="84" width="12" height="12"/>
    <rect x="108" y="84" width="12" height="12"/>
    <rect x="60" y="96" width="12" height="12"/>
    <rect x="108" y="96" width="12" height="12"/>
    <rect x="60" y="108" width="12" height="12"/>
    <rect x="108" y="108" width="12" height="12"/>
    <rect x="60" y="120" width="12" height="12"/>
    <rect x="108" y="120" width="12" height="12"/>
    <rect x="72" y="132" width="12" height="12"/>
    <rect x="84" y="132" width="12" height="12"/>
    <rect x="96" y="132" width="12" height="12"/>
    <rect x="132" y="60" width="12" height="12"/>
    <rect x="144" y="60" width="12" height="12"/>
    <rect x="156" y="60" width="12" height="12"/>
    <rect x="168" y="60" width="12" height="12"/>
    <rect x="132" y="72" width="12" height="12"/>
    <rect x="180" y="72" width="12" height="12"/>
    <rect x="132" y="84" width="12" height="12"/>
    <rect x="180" y="84" width="12" height="12"/>
    <rect x="132" y="96" width="12" height="12"/>
    <rect x="144" y="96" width="12" height="12"/>
    <rect x="156" y="96" width="12" height="12"/>
    <rect x="168" y="96" width="12" height="12"/>
    <rect x="132" y="108" width="12" height="12"/>
    <rect x="132" y="120" width="12" height="12"/>
    <rect x="132" y="132" width="12" height="12"/>
    <rect x="204" y="60" width="12" height="12"/>
    <rect x="216" y="60" width="12" height="12"/>
    <rect x="228" y="60" width="12" height="12"/>
    <rect x="240" y="60" width="12" height="12"/>
    <rect x="252" y="60" width="12" height="12"/>
    <rect x="204" y="72" width="12" height="12"/>
    <rect x="204" y="84" width="12" height="12"/>
    <rect x="204" y="96" width="12" height="12"/>
    <rect x="216" y="96" width="12" height="12"/>
    <rect x="228" y="96" width="12" height="12"/>
    <rect x="240" y="96" width="12" height="12"/>
    <rect x="204" y="108" width="12" height="12"/>
    <rect x="204" y="120" width="12" height="12"/>
    <rect x="204" y="132" width="12" height="12"/>
    <rect x="216" y="132" width="12" height="12"/>
    <rect x="228" y="132" width="12" height="12"/>
    <rect x="240" y="132" width="12" height="12"/>
    <rect x="252" y="132" width="12" height="12"/>
    <rect x="276" y="60" width="12" height="12"/>
    <rect x="324" y="60" width="12" height="12"/>
    <rect x="276" y="72" width="12" height="12"/>
    <rect x="288" y="72" width="12" height="12"/>
    <rect x="324" y="72" width="12" height="12"/>
    <rect x="276" y="84" width="12" height="12"/>
    <rect x="288" y="84" width="12" height="12"/>
    <rect x="324" y="84" width="12" height="12"/>
    <rect x="276" y="96" width="12" height="12"/>
    <rect x="300" y="96" width="12" height="12"/>
    <rect x="324" y="96" width="12" height="12"/>
    <rect x="276" y="108" width="12" height="12"/>
    <rect x="312" y="108" width="12" height="12"/>
    <rect x="324" y="108" width="12" height="12"/>
    <rect x="276" y="120" width="12" height="12"/>
    <rect x="312" y="120" width="12" height="12"/>
    <rect x="324" y="120" width="12" height="12"/>
    <rect x="276" y="132" width="12" height="12"/>
    <rect x="324" y="132" width="12" height="12"/>
    <rect x="348" y="96" width="12" height="12"/>
    <rect x="360" y="96" width="12" height="12"/>
    <rect x="372" y="96" width="12" height="12"/>
    <rect x="384" y="96" width="12" height="12"/>
    <rect x="396" y="96" width="12" height="12"/>
    <rect x="420" y="60" width="12" height="12"/>
    <rect x="468" y="60" width="12" height="12"/>
    <rect x="420" y="72" width="12" height="12"/>
    <rect x="468" y="72" width="12" height="12"/>
    <rect x="420" y="84" width="12" height="12"/>
    <rect x="468" y="84" width="12" height="12"/>
    <rect x="420" y="96" width="12" height="12"/>
    <rect x="468" y="96" width="12" height="12"/>
    <rect x="420" y="108" width="12" height="12"/>
    <rect x="468" y="108" width="12" height="12"/>
    <rect x="432" y="120" width="12" height="12"/>
    <rect x="456" y="120" width="12" height="12"/>
    <rect x="444" y="132" width="12" height="12"/>
    <rect x="492" y="60" width="12" height="12"/>
    <rect x="504" y="60" width="12" height="12"/>
    <rect x="516" y="60" width="12" height="12"/>
    <rect x="528" y="60" width="12" height="12"/>
    <rect x="540" y="60" width="12" height="12"/>
    <rect x="516" y="72" width="12" height="12"/>
    <rect x="516" y="84" width="12" height="12"/>
    <rect x="516" y="96" width="12" height="12"/>
    <rect x="516" y="108" width="12" height="12"/>
    <rect x="516" y="120" width="12" height="12"/>
    <rect x="492" y="132" width="12" height="12"/>
    <rect x="504" y="132" width="12" height="12"/>
    <rect x="516" y="132" width="12" height="12"/>
    <rect x="528" y="132" width="12" height="12"/>
    <rect x="540" y="132" width="12" height="12"/>
    <rect x="564" y="60" width="12" height="12"/>
    <rect x="576" y="60" width="12" height="12"/>
    <rect x="588" y="60" width="12" height="12"/>
    <rect x="600" y="60" width="12" height="12"/>
    <rect x="564" y="72" width="12" height="12"/>
    <rect x="612" y="72" width="12" height="12"/>
    <rect x="564" y="84" width="12" height="12"/>
    <rect x="612" y="84" width="12" height="12"/>
    <rect x="564" y="96" width="12" height="12"/>
    <rect x="576" y="96" width="12" height="12"/>
    <rect x="588" y="96" width="12" height="12"/>
    <rect x="600" y="96" width="12" height="12"/>
    <rect x="564" y="108" width="12" height="12"/>
    <rect x="612" y="108" width="12" height="12"/>
    <rect x="564" y="120" width="12" height="12"/>
    <rect x="612" y="120" width="12" height="12"/>
    <rect x="564" y="132" width="12" height="12"/>
    <rect x="576" y="132" width="12" height="12"/>
    <rect x="588" y="132" width="12" height="12"/>
    <rect x="600" y="132" width="12" height="12"/>
    <rect x="636" y="60" width="12" height="12"/>
    <rect x="648" y="60" width="12" height="12"/>
    <rect x="660" y="60" width="12" height="12"/>
    <rect x="672" y="60" width="12" height="12"/>
    <rect x="684" y="60" width="12" height="12"/>
    <rect x="636" y="72" width="12" height="12"/>
    <rect x="636" y="84" width="12" height="12"/>
    <rect x="636" y="96" width="12" height="12"/>
    <rect x="648" y="96" width="12" height="12"/>
    <rect x="660" y="96" width="12" height="12"/>
    <rect x="672" y="96" width="12" height="12"/>
    <rect x="636" y="108" width="12" height="12"/>
    <rect x="636" y="120" width="12" height="12"/>
    <rect x="636" y="132" width="12" height="12"/>
    <rect x="648" y="132" width="12" height="12"/>
    <rect x="660" y="132" width="12" height="12"/>
    <rect x="672" y="132" width="12" height="12"/>
    <rect x="684" y="132" width="12" height="12"/>
    <rect x="720" y="60" width="12" height="12"/>
    <rect x="732" y="60" width="12" height="12"/>
    <rect x="744" y="60" width="12" height="12"/>
    <rect x="708" y="72" width="12" height="12"/>
    <rect x="756" y="72" width="12" height="12"/>
    <rect x="708" y="84" width="12" height="12"/>
    <rect x="708" y="96" width="12" height="12"/>
    <rect x="708" y="108" width="12" height="12"/>
    <rect x="708" y="120" width="12" height="12"/>
    <rect x="756" y="120" width="12" height="12"/>
    <rect x="720" y="132" width="12" height="12"/>
    <rect x="732" y="132" width="12" height="12"/>
    <rect x="744" y="132" width="12" height="12"/>
    <rect x="792" y="60" width="12" height="12"/>
    <rect x="804" y="60" width="12" height="12"/>
    <rect x="816" y="60" width="12" height="12"/>
    <rect x="780" y="72" width="12" height="12"/>
    <rect x="828" y="72" width="12" height="12"/>
    <rect x="780" y="84" width="12" height="12"/>
    <rect x="828" y="84" width="12" height="12"/>
    <rect x="780" y="96" width="12" height="12"/>
    <rect x="828" y="96" width="12" height="12"/>
    <rect x="780" y="108" width="12" height="12"/>
    <rect x="828" y="108" width="12" height="12"/>
    <rect x="780" y="120" width="12" height="12"/>
    <rect x="828" y="120" width="12" height="12"/>
    <rect x="792" y="132" width="12" height="12"/>
    <rect x="804" y="132" width="12" height="12"/>
    <rect x="816" y="132" width="12" height="12"/>
    <rect x="852" y="60" width="12" height="12"/>
    <rect x="864" y="60" width="12" height="12"/>
    <rect x="876" y="60" width="12" height="12"/>
    <rect x="888" y="60" width="12" height="12"/>
    <rect x="852" y="72" width="12" height="12"/>
    <rect x="900" y="72" width="12" height="12"/>
    <rect x="852" y="84" width="12" height="12"/>
    <rect x="900" y="84" width="12" height="12"/>
    <rect x="852" y="96" width="12" height="12"/>
    <rect x="900" y="96" width="12" height="12"/>
    <rect x="852" y="108" width="12" height="12"/>
    <rect x="900" y="108" width="12" height="12"/>
    <rect x="852" y="120" width="12" height="12"/>
    <rect x="900" y="120" width="12" height="12"/>
    <rect x="852" y="132" width="12" height="12"/>
    <rect x="864" y="132" width="12" height="12"/>
    <rect x="876" y="132" width="12" height="12"/>
    <rect x="888" y="132" width="12" height="12"/>
    <rect x="924" y="60" width="12" height="12"/>
    <rect x="936" y="60" width="12" height="12"/>
    <rect x="948" y="60" width="12" height="12"/>
    <rect x="960" y="60" width="12" height="12"/>
    <rect x="972" y="60" width="12" height="12"/>
    <rect x="948" y="72" width="12" height="12"/>
    <rect x="948" y="84" width="12" height="12"/>
    <rect x="948" y="96" width="12" height="12"/>
    <rect x="948" y="108" width="12" height="12"/>
    <rect x="948" y="120" width="12" height="12"/>
    <rect x="924" y="132" width="12" height="12"/>
    <rect x="936" y="132" width="12" height="12"/>
    <rect x="948" y="132" width="12" height="12"/>
    <rect x="960" y="132" width="12" height="12"/>
    <rect x="972" y="132" width="12" height="12"/>
    <rect x="996" y="60" width="12" height="12"/>
    <rect x="1044" y="60" width="12" height="12"/>
    <rect x="996" y="72" width="12" height="12"/>
    <rect x="1008" y="72" width="12" height="12"/>
    <rect x="1044" y="72" width="12" height="12"/>
    <rect x="996" y="84" width="12" height="12"/>
    <rect x="1008" y="84" width="12" height="12"/>
    <rect x="1044" y="84" width="12" height="12"/>
    <rect x="996" y="96" width="12" height="12"/>
    <rect x="1020" y="96" width="12" height="12"/>
    <rect x="1044" y="96" width="12" height="12"/>
    <rect x="996" y="108" width="12" height="12"/>
    <rect x="1032" y="108" width="12" height="12"/>
    <rect x="1044" y="108" width="12" height="12"/>
    <rect x="996" y="120" width="12" height="12"/>
    <rect x="1032" y="120" width="12" height="12"/>
    <rect x="1044" y="120" width="12" height="12"/>
    <rect x="996" y="132" width="12" height="12"/>
    <rect x="1044" y="132" width="12" height="12"/>
    <rect x="1080" y="60" width="12" height="12"/>
    <rect x="1092" y="60" width="12" height="12"/>
    <rect x="1104" y="60" width="12" height="12"/>
    <rect x="1068" y="72" width="12" height="12"/>
    <rect x="1116" y="72" width="12" height="12"/>
    <rect x="1068" y="84" width="12" height="12"/>
    <rect x="1068" y="96" width="12" height="12"/>
    <rect x="1092" y="96" width="12" height="12"/>
    <rect x="1104" y="96" width="12" height="12"/>
    <rect x="1116" y="96" width="12" height="12"/>
    <rect x="1068" y="108" width="12" height="12"/>
    <rect x="1116" y="108" width="12" height="12"/>
    <rect x="1068" y="120" width="12" height="12"/>
    <rect x="1116" y="120" width="12" height="12"/>
    <rect x="1080" y="132" width="12" height="12"/>
    <rect x="1092" y="132" width="12" height="12"/>
    <rect x="1104" y="132" width="12" height="12"/>
  </g>
  <g fill="#ffffff">
    <rect x="72" y="60" width="12" height="12"/>
    <rect x="84" y="60" width="12" height="12"/>
    <rect x="96" y="60" width="12" height="12"/>
    <rect x="60" y="72" width="12" height="12"/>
    <rect x="108" y="72" width="12" height="12"/>
    <rect x="60" y="84" width="12" height="12"/>
    <rect x="108" y="84" width="12" height="12"/>
    <rect x="60" y="96" width="12" height="12"/>
    <rect x="108" y="96" width="12" height="12"/>
    <rect x="60" y="108" width="12" height="12"/>
    <rect x="108" y="108" width="12" height="12"/>
    <rect x="60" y="120" width="12" height="12"/>
    <rect x="108" y="120" width="12" height="12"/>
    <rect x="72" y="132" width="12" height="12"/>
    <rect x="84" y="132" width="12" height="12"/>
    <rect x="96" y="132" width="12" height="12"/>
    <rect x="132" y="60" width="12" height="12"/>
    <rect x="144" y="60" width="12" height="12"/>
    <rect x="156" y="60" width="12" height="12"/>
    <rect x="168" y="60" width="12" height="12"/>
    <rect x="132" y="72" width="12" height="12"/>
    <rect x="180" y="72" width="12" height="12"/>
    <rect x="132" y="84" width="12" height="12"/>
    <rect x="180" y="84" width="12" height="12"/>
    <rect x="132" y="96" width="12" height="12"/>
    <rect x="144" y="96" width="12" height="12"/>
    <rect x="156" y="96" width="12" height="12"/>
    <rect x="168" y="96" width="12" height="12"/>
    <rect x="132" y="108" width="12" height="12"/>
    <rect x="132" y="120" width="12" height="12"/>
    <rect x="132" y="132" width="12" height="12"/>
    <rect x="204" y="60" width="12" height="12"/>
    <rect x="216" y="60" width="12" height="12"/>
    <rect x="228" y="60" width="12" height="12"/>
    <rect x="240" y="60" width="12" height="12"/>
    <rect x="252" y="60" width="12" height="12"/>
    <rect x="204" y="72" width="12" height="12"/>
    <rect x="204" y="84" width="12" height="12"/>
    <rect x="204" y="96" width="12" height="12"/>
    <rect x="216" y="96" width="12" height="12"/>
    <rect x="228" y="96" width="12" height="12"/>
    <rect x="240" y="96" width="12" height="12"/>
    <rect x="204" y="108" width="12" height="12"/>
    <rect x="204" y="120" width="12" height="12"/>
    <rect x="204" y="132" width="12" height="12"/>
    <rect x="216" y="132" width="12" height="12"/>
    <rect x="228" y="132" width="12" height="12"/>
    <rect x="240" y="132" width="12" height="12"/>
    <rect x="252" y="132" width="12" height="12"/>
    <rect x="276" y="60" width="12" height="12"/>
    <rect x="324" y="60" width="12" height="12"/>
    <rect x="276" y="72" width="12" height="12"/>
    <rect x="288" y="72" width="12" height="12"/>
    <rect x="324" y="72" width="12" height="12"/>
    <rect x="276" y="84" width="12" height="12"/>
    <rect x="288" y="84" width="12" height="12"/>
    <rect x="324" y="84" width="12" height="12"/>
    <rect x="276" y="96" width="12" height="12"/>
    <rect x="300" y="96" width="12" height="12"/>
    <rect x="324" y="96" width="12" height="12"/>
    <rect x="276" y="108" width="12" height="12"/>
    <rect x="312" y="108" width="12" height="12"/>
    <rect x="324" y="108" width="12" height="12"/>
    <rect x="276" y="120" width="12" height="12"/>
    <rect x="312" y="120" width="12" height="12"/>
    <rect x="324" y="120" width="12" height="12"/>
    <rect x="276" y="132" width="12" height="12"/>
    <rect x="324" y="132" width="12" height="12"/>
    <rect x="348" y="96" width="12" height="12"/>
    <rect x="360" y="96" width="12" height="12"/>
    <rect x="372" y="96" width="12" height="12"/>
    <rect x="384" y="96" width="12" height="12"/>
    <rect x="396" y="96" width="12" height="12"/>
    <rect x="420" y="60" width="12" height="12"/>
    <rect x="468" y="60" width="12" height="12"/>
    <rect x="420" y="72" width="12" height="12"/>
    <rect x="468" y="72" width="12" height="12"/>
    <rect x="420" y="84" width="12" height="12"/>
    <rect x="468" y="84" width="12" height="12"/>
    <rect x="420" y="96" width="12" height="12"/>
    <rect x="468" y="96" width="12" height="12"/>
    <rect x="420" y="108" width="12" height="12"/>
    <rect x="468" y="108" width="12" height="12"/>
    <rect x="432" y="120" width="12" height="12"/>
    <rect x="456" y="120" width="12" height="12"/>
    <rect x="444" y="132" width="12" height="12"/>
    <rect x="492" y="60" width="12" height="12"/>
    <rect x="504" y="60" width="12" height="12"/>
    <rect x="516" y="60" width="12" height="12"/>
    <rect x="528" y="60" width="12" height="12"/>
    <rect x="540" y="60" width="12" height="12"/>
    <rect x="516" y="72" width="12" height="12"/>
    <rect x="516" y="84" width="12" height="12"/>
    <rect x="516" y="96" width="12" height="12"/>
    <rect x="516" y="108" width="12" height="12"/>
    <rect x="516" y="120" width="12" height="12"/>
    <rect x="492" y="132" width="12" height="12"/>
    <rect x="504" y="132" width="12" height="12"/>
    <rect x="516" y="132" width="12" height="12"/>
    <rect x="528" y="132" width="12" height="12"/>
    <rect x="540" y="132" width="12" height="12"/>
    <rect x="564" y="60" width="12" height="12"/>
    <rect x="576" y="60" width="12" height="12"/>
    <rect x="588" y="60" width="12" height="12"/>
    <rect x="600" y="60" width="12" height="12"/>
    <rect x="564" y="72" width="12" height="12"/>
    <rect x="612" y="72" width="12" height="12"/>
    <rect x="564" y="84" width="12" height="12"/>
    <rect x="612" y="84" width="12" height="12"/>
    <rect x="564" y="96" width="12" height="12"/>
    <rect x="576" y="96" width="12" height="12"/>
    <rect x="588" y="96" width="12" height="12"/>
    <rect x="600" y="96" width="12" height="12"/>
    <rect x="564" y="108" width="12" height="12"/>
    <rect x="612" y="108" width="12" height="12"/>
    <rect x="564" y="120" width="12" height="12"/>
    <rect x="612" y="120" width="12" height="12"/>
    <rect x="564" y="132" width="12" height="12"/>
    <rect x="576" y="132" width="12" height="12"/>
    <rect x="588" y="132" width="12" height="12"/>
    <rect x="600" y="132" width="12" height="12"/>
    <rect x="636" y="60" width="12" height="12"/>
    <rect x="648" y="60" width="12" height="12"/>
    <rect x="660" y="60" width="12" height="12"/>
    <rect x="672" y="60" width="12" height="12"/>
    <rect x="684" y="60" width="12" height="12"/>
    <rect x="636" y="72" width="12" height="12"/>
    <rect x="636" y="84" width="12" height="12"/>
    <rect x="636" y="96" width="12" height="12"/>
    <rect x="648" y="96" width="12" height="12"/>
    <rect x="660" y="96" width="12" height="12"/>
    <rect x="672" y="96" width="12" height="12"/>
    <rect x="636" y="108" width="12" height="12"/>
    <rect x="636" y="120" width="12" height="12"/>
    <rect x="636" y="132" width="12" height="12"/>
    <rect x="648" y="132" width="12" height="12"/>
    <rect x="660" y="132" width="12" height="12"/>
    <rect x="672" y="132" width="12" height="12"/>
    <rect x="684" y="132" width="12" height="12"/>
    <rect x="720" y="60" width="12" height="12"/>
    <rect x="732" y="60" width="12" height="12"/>
    <rect x="744" y="60" width="12" height="12"/>
    <rect x="708" y="72" width="12" height="12"/>
    <rect x="756" y="72" width="12" height="12"/>
    <rect x="708" y="84" width="12" height="12"/>
    <rect x="708" y="96" width="12" height="12"/>
    <rect x="708" y="108" width="12" height="12"/>
    <rect x="708" y="120" width="12" height="12"/>
    <rect x="756" y="120" width="12" height="12"/>
    <rect x="720" y="132" width="12" height="12"/>
    <rect x="732" y="132" width="12" height="12"/>
    <rect x="744" y="132" width="12" height="12"/>
    <rect x="792" y="60" width="12" height="12"/>
    <rect x="804" y="60" width="12" height="12"/>
    <rect x="816" y="60" width="12" height="12"/>
    <rect x="780" y="72" width="12" height="12"/>
    <rect x="828" y="72" width="12" height="12"/>
    <rect x="780" y="84" width="12" height="12"/>
    <rect x="828" y="84" width="12" height="12"/>
    <rect x="780" y="96" width="12" height="12"/>
    <rect x="828" y="96" width="12" height="12"/>
    <rect x="780" y="108" width="12" height="12"/>
    <rect x="828" y="108" width="12" height="12"/>
    <rect x="780" y="120" width="12" height="12"/>
    <rect x="828" y="120" width="12" height="12"/>
    <rect x="792" y="132" width="12" height="12"/>
    <rect x="804" y="132" width="12" height="12"/>
    <rect x="816" y="132" width="12" height="12"/>
    <rect x="852" y="60" width="12" height="12"/>
    <rect x="864" y="60" width="12" height="12"/>
    <rect x="876" y="60" width="12" height="12"/>
    <rect x="888" y="60" width="12" height="12"/>
    <rect x="852" y="72" width="12" height="12"/>
    <rect x="900" y="72" width="12" height="12"/>
    <rect x="852" y="84" width="12" height="12"/>
    <rect x="900" y="84" width="12" height="12"/>
    <rect x="852" y="96" width="12" height="12"/>
    <rect x="900" y="96" width="12" height="12"/>
    <rect x="852" y="108" width="12" height="12"/>
    <rect x="900" y="108" width="12" height="12"/>
    <rect x="852" y="120" width="12" height="12"/>
    <rect x="900" y="120" width="12" height="12"/>
    <rect x="852" y="132" width="12" height="12"/>
    <rect x="864" y="132" width="12" height="12"/>
    <rect x="876" y="132" width="12" height="12"/>
    <rect x="888" y="132" width="12" height="12"/>
    <rect x="924" y="60" width="12" height="12"/>
    <rect x="936" y="60" width="12" height="12"/>
    <rect x="948" y="60" width="12" height="12"/>
    <rect x="960" y="60" width="12" height="12"/>
    <rect x="972" y="60" width="12" height="12"/>
    <rect x="948" y="72" width="12" height="12"/>
    <rect x="948" y="84" width="12" height="12"/>
    <rect x="948" y="96" width="12" height="12"/>
    <rect x="948" y="108" width="12" height="12"/>
    <rect x="948" y="120" width="12" height="12"/>
    <rect x="924" y="132" width="12" height="12"/>
    <rect x="936" y="132" width="12" height="12"/>
    <rect x="948" y="132" width="12" height="12"/>
    <rect x="960" y="132" width="12" height="12"/>
    <rect x="972" y="132" width="12" height="12"/>
    <rect x="996" y="60" width="12" height="12"/>
    <rect x="1044" y="60" width="12" height="12"/>
    <rect x="996" y="72" width="12" height="12"/>
    <rect x="1008" y="72" width="12" height="12"/>
    <rect x="1044" y="72" width="12" height="12"/>
    <rect x="996" y="84" width="12" height="12"/>
    <rect x="1008" y="84" width="12" height="12"/>
    <rect x="1044" y="84" width="12" height="12"/>
    <rect x="996" y="96" width="12" height="12"/>
    <rect x="1020" y="96" width="12" height="12"/>
    <rect x="1044" y="96" width="12" height="12"/>
    <rect x="996" y="108" width="12" height="12"/>
    <rect x="1032" y="108" width="12" height="12"/>
    <rect x="1044" y="108" width="12" height="12"/>
    <rect x="996" y="120" width="12" height="12"/>
    <rect x="1032" y="120" width="12" height="12"/>
    <rect x="1044" y="120" width="12" height="12"/>
    <rect x="996" y="132" width="12" height="12"/>
    <rect x="1044" y="132" width="12" height="12"/>
    <rect x="1080" y="60" width="12" height="12"/>
    <rect x="1092" y="60" width="12" height="12"/>
    <rect x="1104" y="60" width="12" height="12"/>
    <rect x="1068" y="72" width="12" height="12"/>
    <rect x="1116" y="72" width="12" height="12"/>
    <rect x="1068" y="84" width="12" height="12"/>
    <rect x="1068" y="96" width="12" height="12"/>
    <rect x="1092" y="96" width="12" height="12"/>
    <rect x="1104" y="96" width="12" height="12"/>
    <rect x="1116" y="96" width="12" height="12"/>
    <rect x="1068" y="108" width="12" height="12"/>
    <rect x="1116" y="108" width="12" height="12"/>
    <rect x="1068" y="120" width="12" height="12"/>
    <rect x="1116" y="120" width="12" height="12"/>
    <rect x="1080" y="132" width="12" height="12"/>
    <rect x="1092" y="132" width="12" height="12"/>
    <rect x="1104" y="132" width="12" height="12"/>
  </g>
</svg>